<svg width="20" height="20" viewBox="0 0 20 20" fill="none" xmlns="http://www.w3.org/2000/svg">
<g id="globe-05" clip-path="url(#clip0_56621_1294)">
<path id="Icon" d="M12.4998 2.04825C11.7106 1.80038 10.8708 1.66675 9.99984 1.66675C5.39746 1.66675 1.6665 5.39771 1.6665 10.0001C1.6665 14.6025 5.39746 18.3334 9.99984 18.3334C14.6022 18.3334 18.3332 14.6025 18.3332 10.0001C18.3332 8.57064 17.9733 7.22526 17.3391 6.04962M14.1665 4.79175H14.1707M8.74988 18.2403L8.74997 16.4042C8.74998 16.3047 8.78556 16.2086 8.85028 16.133L10.9218 13.7163C11.092 13.5176 11.0393 13.2131 10.8121 13.0833L8.43195 11.7232C8.36728 11.6862 8.3137 11.6326 8.27678 11.5679L6.72522 8.84894C6.64447 8.70743 6.48865 8.62597 6.32636 8.64042L1.71999 9.0507M17.4998 5.00008C17.4998 6.84103 15.8332 8.33342 14.1665 10.0001C12.4998 8.33342 10.8332 6.84103 10.8332 5.00008C10.8332 3.15913 12.3256 1.66675 14.1665 1.66675C16.0075 1.66675 17.4998 3.15913 17.4998 5.00008ZM14.3748 4.79175C14.3748 4.90681 14.2816 5.00008 14.1665 5.00008C14.0514 5.00008 13.9582 4.90681 13.9582 4.79175C13.9582 4.67669 14.0514 4.58341 14.1665 4.58341C14.2816 4.58341 14.3748 4.67669 14.3748 4.79175Z" stroke="#BDBDBE" stroke-width="2" stroke-linecap="round" stroke-linejoin="round"/>
</g>
<defs>
<clipPath id="clip0_56621_1294">
<rect width="20" height="20" fill="white"/>
</clipPath>
</defs>
</svg>
