<svg width="16" height="16" viewBox="0 0 16 16" fill="none" xmlns="http://www.w3.org/2000/svg">
<g id="check-circle-broken">
<g clip-path="url(#clip0_204_41030)">
<path id="Icon" d="M14.6668 7.3904V8.00373C14.666 9.44135 14.2005 10.8402 13.3397 11.9916C12.4789 13.1431 11.269 13.9854 9.8904 14.393C8.51178 14.8006 7.03834 14.7517 5.68981 14.2535C4.34128 13.7552 3.18993 12.8345 2.40747 11.6284C1.62501 10.4224 1.25336 8.99578 1.34795 7.56128C1.44254 6.12678 1.9983 4.76129 2.93235 3.66845C3.8664 2.57561 5.12869 1.81399 6.53096 1.49717C7.93323 1.18034 9.40034 1.32529 10.7135 1.9104M14.6668 2.66659L8.00016 9.33992L6.00016 7.33992" stroke="#72D38D" stroke-linecap="round" stroke-linejoin="round"/>
</g>
</g>
<defs>
<clipPath id="clip0_204_41030">
<rect width="16" height="16" rx="8" fill="white"/>
</clipPath>
</defs>
</svg>
