<svg width="20" height="20" viewBox="0 0 20 20" fill="none" xmlns="http://www.w3.org/2000/svg">
<g id="Icon: additional driver" clip-path="url(#clip0_56621_1504)">
<path id="Vector" d="M8.77004 7.66065C9.09222 7.72561 9.41147 7.75738 9.72436 7.75738C10.8231 7.75738 11.8411 7.36333 12.6084 6.62122C13.7581 5.50924 14.117 3.87327 13.5225 2.45354C13.0256 1.26617 11.8651 0.359036 10.4936 0.0854268C9.22296 -0.167792 7.94156 0.14802 6.97744 0.951776C5.76655 1.96181 5.29355 3.5788 5.77291 5.07203C6.20576 6.42063 7.29816 7.3638 8.76955 7.66065H8.77004ZM7.30551 3.67411C7.37308 2.79069 8.00325 1.97698 8.87433 1.64836C9.14413 1.54641 9.4198 1.49615 9.694 1.49615C10.1719 1.49615 10.6459 1.64931 11.0787 1.95042C11.8259 2.47014 12.1907 3.37063 12.0316 4.30099C11.8847 5.15739 11.3123 5.83833 10.5 6.12332C9.59068 6.44197 8.89637 6.19682 8.47429 5.93459C7.70849 5.45897 7.23891 4.55042 7.306 3.67411H7.30551Z" fill="#BDBDBE"/>
<path id="Vector_2" d="M12.349 8.59814H7.06276C4.79031 8.59814 2.94141 10.4527 2.94141 12.7317V14.7019C2.94141 15.1866 3.34683 15.5792 3.84725 15.5792H4.93818C4.99939 16.8605 5.60802 18.0545 6.63872 18.8943C7.52498 19.6165 8.62375 20.0006 9.75385 20.0006C10.0658 20.0006 10.3801 19.9712 10.6925 19.9119C12.8553 19.5008 14.4481 17.7036 14.5759 15.5811C14.619 15.5797 14.664 15.5797 14.7086 15.5797H14.7952C14.8418 15.5797 14.8888 15.5806 14.9368 15.5816C14.9671 15.582 14.998 15.5825 15.0293 15.583C15.0293 15.582 15.0288 15.5811 15.0283 15.5797H15.5645C16.0649 15.5797 16.4703 15.187 16.4703 14.7024V12.7322C16.4703 10.4532 14.6214 8.59909 12.349 8.59909V8.59814ZM5.67118 12.826C5.45623 13.1594 5.31717 13.4847 5.18154 13.8242H4.75359V12.7312C4.75359 11.4196 5.78968 10.3527 7.06325 10.3527H12.3495C13.623 10.3527 14.6591 11.4196 14.6591 12.7312V13.8242H14.3159C13.9736 12.7767 13.1814 11.8383 12.134 11.2617C11.0534 10.6666 9.78911 10.5006 8.57429 10.7941C7.35801 11.0877 6.32682 11.8094 5.67118 12.826ZM12.725 14.5165H11.3677C11.0646 13.9314 10.4526 13.5639 9.7514 13.5639C9.05072 13.5639 8.43915 13.9314 8.13606 14.5165H6.7014C6.88355 13.8821 7.26743 13.3145 7.78694 12.9232C8.56401 12.3381 9.56093 12.129 10.5221 12.35C11.5562 12.5875 12.4356 13.4065 12.7662 14.3852C12.7495 14.4274 12.7353 14.471 12.725 14.5161V14.5165ZM8.90627 18.2845C7.83297 17.9781 6.98392 17.1469 6.69699 16.1203H8.1248C8.30303 16.4892 8.62228 16.7301 8.90676 16.8946V18.2845H8.90627ZM9.87626 15.4203C9.865 15.4379 9.83464 15.4848 9.70636 15.4697C9.60892 15.4578 9.59765 15.3663 9.59716 15.3274C9.59716 15.2857 9.60745 15.1875 9.71811 15.1719C9.82975 15.1562 9.85913 15.1998 9.87186 15.2183C9.90956 15.2748 9.91152 15.3653 9.87577 15.4208L9.87626 15.4203ZM10.597 18.283V16.8979C10.88 16.7386 11.1983 16.5006 11.379 16.1207H12.8068C12.5218 17.1421 11.6728 17.9729 10.597 18.2835V18.283Z" fill="#BDBDBE"/>
</g>
<defs>
<clipPath id="clip0_56621_1504">
<rect width="20" height="20" fill="white"/>
</clipPath>
</defs>
</svg>
