<svg width="20" height="20" viewBox="0 0 20 20" fill="none" xmlns="http://www.w3.org/2000/svg">
<g id="icon: Baby seat2">
<path id="Vector" d="M6.05427 5.56967C6.9338 5.56967 7.81936 5.15755 8.38132 4.22801C9.38682 2.56588 8.35266 0.24846 6.42238 0.0166415C6.33035 0.00527788 6.17949 0.000732422 6.02712 0.000732422C5.86645 0.000732422 5.70427 0.00679303 5.60621 0.0166415C4.37669 0.14846 3.31764 1.35301 3.23617 2.57346C3.11397 4.40528 4.57582 5.56967 6.05427 5.56967Z" fill="#BDBDBE"/>
<path id="Vector_2" d="M14.6408 11.3674C13.9868 11.3674 13.262 11.5469 12.7 11.6878C11.7262 11.9318 10.3254 12.5613 9.28824 12.5613C9.17812 12.5613 9.07251 12.5545 8.97143 12.5386C6.7598 12.2015 6.70247 9.89466 6.06206 8.20148C5.80031 7.51057 5.26475 6.14087 4.37693 6.14087C4.33092 6.14087 4.2834 6.14466 4.23587 6.15223C3.32316 6.29769 2.51152 7.28784 2.16756 8.09466C0.920681 11.0181 2.10721 15.2659 4.55118 17.253C4.45689 18.0689 4.28566 18.8825 4.24794 19.7022C4.26831 19.8287 4.40031 19.9916 4.53458 19.9992H12.3492C12.568 19.9969 12.6842 19.8257 12.7136 19.6234L12.4481 17.6818C12.8252 17.4522 13.231 17.2803 13.6067 17.0469C15.0474 16.1522 16.4934 14.5939 16.3252 12.7621C16.2249 11.6704 15.4924 11.3659 14.6416 11.3659L14.6408 11.3674ZM12.7739 15.6947C12.6336 15.7818 12.4654 15.8689 12.2866 15.9606C12.086 16.0644 11.8582 16.181 11.6281 16.3212L10.7373 16.8628L10.8791 17.8992L10.9492 18.4091H5.98965C5.99115 18.3992 5.99266 18.3901 5.99417 18.3803C6.04018 18.0757 6.08695 17.7606 6.12467 17.4371L6.22499 16.5674L5.54762 16.0166C4.62585 15.2674 3.88135 14.0272 3.50495 12.6144C3.12779 11.2 3.17079 9.78102 3.62262 8.72193C3.76217 8.3939 4.00128 8.09163 4.20344 7.90754C4.29848 8.08102 4.42294 8.34996 4.58059 8.76738C4.69525 9.07117 4.79557 9.42647 4.90118 9.80299C5.12143 10.5863 5.37111 11.475 5.86745 12.253C6.53426 13.2977 7.49827 13.9234 8.73307 14.1113C8.90958 14.1378 9.0959 14.1515 9.28749 14.1515C10.2432 14.1515 11.2517 13.8174 12.1418 13.5219C12.4926 13.4053 12.8245 13.2954 13.0824 13.231C13.5433 13.1159 14.1739 12.9575 14.6401 12.9575C14.6823 12.9575 14.7193 12.9591 14.7502 12.9613C14.8113 14.0325 13.7296 15.1 12.7724 15.6939L12.7739 15.6947Z" fill="#BDBDBE"/>
<path id="Vector_3" d="M8.22967 6.3781C7.68958 6.39932 7.07859 6.68568 6.71124 7.08113L6.70068 7.13113C6.93226 7.66901 7.13441 8.21977 7.31696 8.77659C7.65262 9.80007 7.74088 11.2039 8.97946 11.5175C9.86728 11.7417 11.0312 11.0077 11.9243 10.869L12.0171 10.8046L10.7777 8.39174L13.8636 6.06523C14.762 5.12053 14.0333 3.56598 12.7487 3.65689C12.4576 3.67735 12.2524 3.78341 12.0133 3.93341C11.5366 4.23265 8.8301 6.41371 8.6204 6.41826C8.51178 6.42053 8.3828 6.37204 8.23042 6.3781H8.22967Z" fill="#BDBDBE"/>
<path id="Vector_4" d="M18.6629 10.0653C18.3491 9.80844 18.0858 9.77283 17.7041 9.70162C16.7975 9.53192 15.7852 9.39025 14.8672 9.27207C14.6122 9.2395 14.389 9.19556 14.1649 9.19556C13.9748 9.19556 13.7832 9.22738 13.572 9.32434C13.0327 9.57207 12.8343 10.1683 12.562 10.6516C13.0463 10.6137 13.5328 10.4539 14.0239 10.4024C14.2132 10.3827 14.4055 10.3713 14.5979 10.3713C15.623 10.3713 16.6413 10.688 17.0879 11.7243C17.1467 11.86 17.2817 12.4683 17.3111 12.4956C17.3609 12.5403 17.4741 12.5577 17.6091 12.5577C17.8686 12.5577 18.2103 12.4933 18.3393 12.4342C19.2746 12.0092 19.464 10.7221 18.6629 10.0653Z" fill="#BDBDBE"/>
</g>
</svg>
