<svg width="24" height="24" viewBox="0 0 24 24" fill="none" xmlns="http://www.w3.org/2000/svg">
<circle cx="12" cy="12" r="12" fill="#C5A085"/>
<path fill-rule="evenodd" clip-rule="evenodd" d="M17.3654 8.23447C17.5154 8.3845 17.5997 8.58794 17.5997 8.80007C17.5997 9.0122 17.5154 9.21565 17.3654 9.36567L10.9654 15.7657C10.8154 15.9156 10.612 15.9999 10.3998 15.9999C10.1877 15.9999 9.98426 15.9156 9.83424 15.7657L6.63424 12.5657C6.48851 12.4148 6.40788 12.2127 6.4097 12.003C6.41152 11.7932 6.49566 11.5925 6.64398 11.4442C6.79231 11.2959 6.99296 11.2118 7.20272 11.2099C7.41247 11.2081 7.61456 11.2887 7.76544 11.4345L10.3998 14.0689L16.2342 8.23447C16.3843 8.0845 16.5877 8.00024 16.7998 8.00024C17.012 8.00024 17.2154 8.0845 17.3654 8.23447Z" fill="#FEFEFF"/>
</svg>
