<svg width="16" height="16" viewBox="0 0 16 16" fill="none" xmlns="http://www.w3.org/2000/svg">
<g id="luggage-01">
<path id="Icon" d="M5.33317 14.6666V13.3333M6.33317 9.99992V4.66659M10.6665 14.6666V13.3333M9.6665 9.99992V4.66659M5.8665 13.3333H10.1332C11.2533 13.3333 11.8133 13.3333 12.2412 13.1153C12.6175 12.9235 12.9234 12.6176 13.1152 12.2412C13.3332 11.8134 13.3332 11.2534 13.3332 10.1333V4.53325C13.3332 3.41315 13.3332 2.85309 13.1152 2.42527C12.9234 2.04895 12.6175 1.74299 12.2412 1.55124C11.8133 1.33325 11.2533 1.33325 10.1332 1.33325H5.8665C4.7464 1.33325 4.18635 1.33325 3.75852 1.55124C3.3822 1.74299 3.07624 2.04895 2.88449 2.42527C2.6665 2.85309 2.6665 3.41315 2.6665 4.53325V10.1333C2.6665 11.2534 2.6665 11.8134 2.88449 12.2412C3.07624 12.6176 3.3822 12.9235 3.75852 13.1153C4.18635 13.3333 4.7464 13.3333 5.8665 13.3333Z" stroke="#FEFEFF" stroke-linecap="round" stroke-linejoin="round"/>
</g>
</svg>
