<svg width="16" height="16" viewBox="0 0 16 16" fill="none" xmlns="http://www.w3.org/2000/svg">
<g id="tabler:manual-gearbox">
<g id="Group">
<path id="Vector" d="M3.33333 5.33341C2.97971 5.33341 2.64057 5.19294 2.39052 4.94289C2.14048 4.69284 2 4.3537 2 4.00008C2 3.64646 2.14048 3.30732 2.39052 3.05727C2.64057 2.80722 2.97971 2.66675 3.33333 2.66675C3.68696 2.66675 4.02609 2.80722 4.27614 3.05727C4.52619 3.30732 4.66667 3.64646 4.66667 4.00008C4.66667 4.3537 4.52619 4.69284 4.27614 4.94289C4.02609 5.19294 3.68696 5.33341 3.33333 5.33341ZM3.33333 5.33341V10.6667M8 5.33341C7.64638 5.33341 7.30724 5.19294 7.05719 4.94289C6.80714 4.69284 6.66667 4.3537 6.66667 4.00008C6.66667 3.64646 6.80714 3.30732 7.05719 3.05727C7.30724 2.80722 7.64638 2.66675 8 2.66675C8.35362 2.66675 8.69276 2.80722 8.94281 3.05727C9.19286 3.30732 9.33333 3.64646 9.33333 4.00008C9.33333 4.3537 9.19286 4.69284 8.94281 4.94289C8.69276 5.19294 8.35362 5.33341 8 5.33341ZM8 5.33341V10.6667M3.33333 10.6667C3.68696 10.6667 4.02609 10.8072 4.27614 11.0573C4.52619 11.3073 4.66667 11.6465 4.66667 12.0001C4.66667 12.3537 4.52619 12.6928 4.27614 12.9429C4.02609 13.1929 3.68696 13.3334 3.33333 13.3334C2.97971 13.3334 2.64057 13.1929 2.39052 12.9429C2.14048 12.6928 2 12.3537 2 12.0001C2 11.6465 2.14048 11.3073 2.39052 11.0573C2.64057 10.8072 2.97971 10.6667 3.33333 10.6667ZM8 10.6667C8.35362 10.6667 8.69276 10.8072 8.94281 11.0573C9.19286 11.3073 9.33333 11.6465 9.33333 12.0001C9.33333 12.3537 9.19286 12.6928 8.94281 12.9429C8.69276 13.1929 8.35362 13.3334 8 13.3334C7.64638 13.3334 7.30724 13.1929 7.05719 12.9429C6.80714 12.6928 6.66667 12.3537 6.66667 12.0001C6.66667 11.6465 6.80714 11.3073 7.05719 11.0573C7.30724 10.8072 7.64638 10.6667 8 10.6667ZM11.3333 4.00008C11.3333 4.3537 11.4738 4.69284 11.7239 4.94289C11.9739 5.19294 12.313 5.33341 12.6667 5.33341C13.0203 5.33341 13.3594 5.19294 13.6095 4.94289C13.8595 4.69284 14 4.3537 14 4.00008C14 3.64646 13.8595 3.30732 13.6095 3.05727C13.3594 2.80722 13.0203 2.66675 12.6667 2.66675C12.313 2.66675 11.9739 2.80722 11.7239 3.05727C11.4738 3.30732 11.3333 3.64646 11.3333 4.00008Z" stroke="#FEFEFF" stroke-linecap="round" stroke-linejoin="round"/>
<path id="Vector_2" d="M12.6668 5.3335V6.66683C12.6668 7.02045 12.5264 7.35959 12.2763 7.60964C12.0263 7.85969 11.6871 8.00016 11.3335 8.00016H3.3335" stroke="#FEFEFF" stroke-linecap="round" stroke-linejoin="round"/>
</g>
</g>
</svg>
